<svg width="92" height="36" viewBox="0 0 92 36" fill="none" xmlns="http://www.w3.org/2000/svg">
<path d="M25.4 22.8H25.94C26.2333 22.8 26.4533 22.7267 26.6 22.58C26.76 22.4333 26.84 22.2067 26.84 21.9V18.58H25.4V17.32H26.84V13.98C26.84 13.6867 26.76 13.4667 26.6 13.32C26.4533 13.16 26.2333 13.08 25.94 13.08H25.4V11.82H30.98V13.08H30.44C30.1333 13.08 29.9067 13.16 29.76 13.32C29.6133 13.4667 29.54 13.6867 29.54 13.98V17.32H33.86V13.98C33.86 13.6867 33.78 13.4667 33.62 13.32C33.4733 13.16 33.2533 13.08 32.96 13.08H32.42V11.82H38V13.08H37.46C37.1533 13.08 36.9267 13.16 36.78 13.32C36.6333 13.4667 36.56 13.6867 36.56 13.98V17.32H38V18.58H36.56V26.04H35.84C35.84 25.32 35.6733 24.78 35.34 24.42C35.0067 24.06 34.5133 23.88 33.86 23.88V18.58H29.54V21.9C29.54 22.2067 29.6133 22.4333 29.76 22.58C29.9067 22.7267 30.1333 22.8 30.44 22.8H30.98V24.06H25.4V22.8ZM48.118 20.9C47.958 22.02 47.518 22.86 46.798 23.42C46.0913 23.9667 45.1046 24.24 43.838 24.24C42.558 24.24 41.558 23.9667 40.838 23.42C40.1313 22.8733 39.7046 22.04 39.558 20.92L38.598 19.92L39.558 18.96C39.7046 17.84 40.1313 17 40.838 16.44C41.558 15.88 42.558 15.6 43.838 15.6C45.118 15.6 46.1113 15.8867 46.818 16.46C47.5246 17.02 47.958 17.86 48.118 18.98L49.098 19.92L48.118 20.9ZM45.318 19.92C45.318 18.9067 45.1913 18.1467 44.938 17.64C44.6846 17.12 44.318 16.86 43.838 16.86C43.3446 16.86 42.978 17.12 42.738 17.64C42.498 18.1467 42.378 18.9067 42.378 19.92C42.378 20.9467 42.498 21.7133 42.738 22.22C42.978 22.7267 43.3446 22.98 43.838 22.98C44.318 22.98 44.6846 22.7267 44.938 22.22C45.1913 21.7133 45.318 20.9467 45.318 19.92ZM58.1964 18.48H57.4764C57.4764 18 57.3364 17.64 57.0564 17.4C56.7897 17.16 56.3897 17.04 55.8564 17.04H54.3364C53.9364 17.04 53.6364 17.1333 53.4364 17.32C53.2497 17.4933 53.1564 17.76 53.1564 18.12C53.1564 18.52 53.2497 18.82 53.4364 19.02C53.6364 19.2067 53.9364 19.3 54.3364 19.3C55.3897 19.3 56.2431 19.42 56.8964 19.66C57.5631 19.9 58.0297 20.2533 58.2964 20.72L58.3164 20.7L59.3164 21.74L58.3164 22.76H58.2964C58.0297 23.2 57.5631 23.5267 56.8964 23.74C56.2431 23.9533 55.3897 24.06 54.3364 24.06H50.2764V21.36H50.9964C50.9964 21.84 51.1297 22.2 51.3964 22.44C51.6631 22.68 52.0697 22.8 52.6164 22.8H54.3364C54.8297 22.8 55.2031 22.7133 55.4564 22.54C55.7231 22.3667 55.8564 22.1 55.8564 21.74C55.8564 21.3533 55.7231 21.06 55.4564 20.86C55.2031 20.66 54.8297 20.56 54.3364 20.56C53.3097 20.56 52.4831 20.44 51.8564 20.2C51.2431 19.96 50.8364 19.5867 50.6364 19.08L49.6964 18.12L50.6764 17.12C50.9164 16.68 51.3364 16.3467 51.9364 16.12C52.5497 15.8933 53.3497 15.78 54.3364 15.78H58.1964V18.48ZM64.6461 17.94C64.6461 17.6467 64.5661 17.4267 64.4061 17.28C64.2594 17.12 64.0394 17.04 63.7461 17.04C63.4394 17.04 63.2128 17.12 63.0661 17.28C62.9194 17.4267 62.8461 17.6467 62.8461 17.94V21.9C62.8461 22.2067 62.9194 22.4333 63.0661 22.58C63.2128 22.7267 63.4394 22.8 63.7461 22.8C64.0394 22.8 64.2594 22.7267 64.4061 22.58C64.5661 22.4333 64.6461 22.2067 64.6461 21.9H65.3661V24.06H63.7461C62.5461 24.06 61.6461 23.76 61.0461 23.16C60.4461 22.5467 60.1461 21.6267 60.1461 20.4V11.82H62.8461V15.78H65.3661V17.94H64.6461Z" fill="white"/>
<rect x="0.5" y="0.5" width="91" height="35" stroke="url(#paint0_linear_1220_21)"/>
<defs>
<linearGradient id="paint0_linear_1220_21" x1="92" y1="0" x2="67.5672" y2="62.4393" gradientUnits="userSpaceOnUse">
<stop stop-color="white"/>
<stop offset="0.345" stop-color="white" stop-opacity="0"/>
<stop offset="0.67" stop-color="white" stop-opacity="0"/>
<stop offset="1" stop-color="white"/>
</linearGradient>
</defs>
</svg>
